<svg xmlns="http://www.w3.org/2000/svg" width="83" height="33" fill="none" viewBox="0 0 83 33">
    <g fill="#fff" clip-path="url(#clip0)">
        <path d="M20.062 15.133L15.937 11v-.475c.011-.76-.129-1.515-.412-2.22-.283-.705-.703-1.347-1.236-1.888-.533-.541-1.168-.971-1.868-1.264-.7-.294-1.452-.445-2.211-.445-.76 0-1.511.151-2.212.445-.7.293-1.335.723-1.868 1.264-.533.541-.953 1.183-1.236 1.888-.283.705-.423 1.46-.412 2.22v5.053c-.004.156.026.31.087.454.061.143.153.272.269.377l4.125 4.102v2.255c0 .315.125.617.347.84.222.222.524.347.838.347.315 0 .617-.125.839-.348.222-.222.347-.524.347-.839v-2.73c.004-.156-.026-.311-.087-.454-.061-.144-.153-.272-.268-.377l-4.123-4.13v-4.55c-.009-.446.072-.89.237-1.304.165-.415.41-.793.722-1.111.313-.319.685-.572 1.096-.745.411-.172.853-.261 1.299-.261.445 0 .887.089 1.298.261.41.173.783.426 1.096.745.312.318.558.696.722 1.11.165.415.246.859.237 1.305v.891c-.004.12.006.24.03.356v.03c.006.063.026.124.06.178.073.187.196.351.355.475l4.066 4.072V22.8c-.002 2.08-.828 4.075-2.297 5.546-1.469 1.471-3.46 2.3-5.538 2.303-4.15-.06-7.568-3.27-7.836-7.373-.01-.156-.05-.31-.12-.45-.07-.141-.167-.266-.286-.369-.119-.102-.257-.18-.406-.228-.15-.049-.307-.066-.463-.053-.157.01-.31.051-.451.121-.14.07-.266.168-.368.287-.103.12-.18.259-.228.408-.048.15-.065.308-.051.465.149 2.665 1.334 5.166 3.303 6.968 1.968 1.801 4.562 2.76 7.228 2.67 2.665-.089 5.19-1.219 7.033-3.148 1.843-1.93 2.86-4.504 2.83-7.174v-6.779c-.012-.321-.14-.628-.362-.861z"/>
        <path d="M4.482 21.821v.95c-.01.76.13 1.514.412 2.22.283.705.703 1.346 1.236 1.888.533.54 1.168.97 1.869 1.264.7.293 1.451.444 2.21.444.76 0 1.511-.15 2.212-.444.7-.293 1.335-.723 1.868-1.264.533-.542.953-1.183 1.236-1.889.283-.705.423-1.46.412-2.22v-4.965c.005-.157-.025-.312-.086-.455-.062-.144-.154-.272-.27-.376l-4.213-4.22v-2.255c0-.315-.126-.617-.348-.84-.222-.222-.524-.347-.838-.347-.315 0-.616.125-.839.347-.222.223-.347.525-.347.84v2.765c-.004.156.025.312.087.455.061.143.153.272.269.376l4.211 4.184v4.46c.009.446-.072.89-.237 1.304-.164.415-.41.792-.722 1.11-.313.32-.685.572-1.096.745-.411.173-.853.262-1.298.262-.446 0-.888-.09-1.299-.262-.41-.173-.783-.426-1.095-.744-.313-.319-.558-.696-.723-1.111-.165-.415-.246-.858-.237-1.304v-1.1c.047-.199.044-.406-.008-.603-.051-.197-.15-.378-.289-.528h-.03l-.029-.03-4.129-4.126v-6.125c-.002-1.031.199-2.053.592-3.007.393-.953.97-1.82 1.698-2.549.728-.73 1.593-1.308 2.545-1.702.952-.395 1.973-.597 3.003-.595 3.977 0 7.39 3.092 7.776 7.046v.118c.012.156.054.308.124.448s.168.264.286.366c.119.102.256.18.404.228.148.049.305.068.46.056.156-.011.308-.054.447-.124.14-.07.264-.168.366-.286.102-.119.18-.256.228-.405.049-.148.068-.305.056-.46l-.03-.18c-.266-2.601-1.521-5.001-3.505-6.703S12.276-.098 9.667.036C7.057.171 4.6 1.303 2.801 3.2 1 5.096-.001 7.612 0 10.227v6.628c-.004.156.026.31.087.454.061.144.153.272.269.377l4.126 4.135z"/>
        <path fill-rule="evenodd" d="M31.084 19.037v.23c0 1.149.994 1.992 2.32 1.992 1.276 0 2.244-.792 2.244-1.813-.001-.264-.064-.523-.183-.758-.12-.235-.292-.439-.504-.595-.434-.332-.74-.46-2.067-.95-3.724-1.328-5.05-2.73-5.05-5.341 0-3.086 2.27-5.159 5.61-5.159 3.32 0 5.455 1.941 5.74 5.21h-3.52c-.127-1.424-.841-2.12-2.22-2.12-1.249 0-2.09.712-2.09 1.788 0 .69.355 1.226 1.045 1.608.46.255.74.383 1.99.843 1.862.69 2.806 1.175 3.546 1.89.892.842 1.352 1.991 1.352 3.293 0 3.115-2.347 5.184-5.867 5.184-3.571 0-5.765-2.043-5.739-5.312l3.393.01zM68.442 24.016h-3.24v-9.133h-1.304v-2.73h1.304v-.623c0-3.165 1.554-4.646 4.795-4.545v2.986c-1.123.127-1.555.561-1.555 1.557v.628h1.555v2.73h-1.555v9.13zM75.914 20.544c0 .561.204.712.92.766h.56v2.706h-2.575c-1.58-.051-2.168-.689-2.143-2.247v-6.894h-1.352V12.17h1.352V8.977h3.24v3.192h1.48v2.706h-1.482v5.669zM79.737 14.628h-.551v-1.825h-.525v-.447h1.596v.447h-.52v1.825zM81.064 14.628h-.551v-2.272h.642l.602 1.223.597-1.223H83v2.272h-.551v-1.297l-.692 1.39-.693-1.39v1.297zM59.308 12.146v7.439c0 1.22-.696 1.967-1.865 1.967-1.145 0-1.916-.872-1.916-2.166v-7.24h-3.16v7.57c0 1.519.399 2.61 1.22 3.362.895.822 2.264 1.27 3.856 1.27.602.004 1.203-.07 1.786-.22v.993c0 .996-.434 1.424-1.556 1.557l-2.053.013v2.983h2.48c2.95-.038 4.37-1.524 4.37-4.547v-12.98h-3.162zM49.476 13.426c-.896-.823-2.264-1.27-3.856-1.27-.602-.004-1.203.07-1.787.22V7.022v-.041h-3.238v16.966h3.158v-7.024c0-1.22.697-1.968 1.866-1.968 1.144 0 1.915.872 1.915 2.167v6.825h3.16v-7.16c0-1.52-.398-2.612-1.219-3.362" clip-rule="evenodd"/>
    </g>
    <defs>
        <clipPath id="clip0">
            <path fill="#fff" d="M0 0H83V33H0z"/>
        </clipPath>
    </defs>
</svg>
