<svg xmlns="http://www.w3.org/2000/svg" width="16" height="16" fill="none" viewBox="0 0 16 16">
    <path fill="#F87171" fill-rule="evenodd" d="M8 16c4.418 0 8-3.582 8-8s-3.582-8-8-8-8 3.582-8 8 3.582 8 8 8zM6.707 5.293c-.39-.39-1.024-.39-1.414 0-.39.39-.39 1.024 0 1.414L6.586 8 5.293 9.293c-.39.39-.39 1.024 0 1.414.39.39 1.024.39 1.414 0L8 9.414l1.293 1.293c.39.39 1.024.39 1.414 0 .39-.39.39-1.024 0-1.414L9.414 8l1.293-1.293c.39-.39.39-1.024 0-1.414-.39-.39-1.024-.39-1.414 0L8 6.586 6.707 5.293z" clip-rule="evenodd"/>
</svg>
