<svg xmlns="http://www.w3.org/2000/svg" width="35" height="32" fill="none" viewBox="0 0 35 32">
    <g fill="#80225F" clip-path="url(#clip0)">
        <path d="M27.65 14.674l-4.04-4.007v-.462c0-3.055-2.5-5.564-5.612-5.564-.737-.001-1.468.142-2.15.42-.68.28-1.3.69-1.821 1.207-.521.517-.934 1.131-1.215 1.807-.281.675-.425 1.4-.423 2.13v4.901c0 .318.117.605.35.808l4.04 3.977v2.19c0 .306.122.6.34.815.218.216.514.338.823.338.308 0 .604-.122.822-.338.218-.216.34-.509.34-.815V19.43c0-.317-.116-.606-.348-.807l-4.04-4.008v-4.41c0-1.787 1.482-3.257 3.284-3.257 1.802 0 3.284 1.47 3.284 3.257v.865c-.004.116.005.232.03.346v.029c.006.061.026.12.058.173.058.173.203.346.348.461l3.983 3.95v6.083c0 4.18-3.43 7.61-7.675 7.61-4.07-.057-7.412-3.17-7.674-7.15-.029-.633-.61-1.123-1.25-1.066-.639.03-1.133.606-1.075 1.24C8.378 27.936 12.768 32 18 32 23.524 32 28 27.56 28 22.083V15.51c0-.317-.145-.607-.35-.836z"/>
        <path d="M12.39 21.16v.922c0 3.056 2.5 5.564 5.61 5.564.737.001 1.468-.141 2.15-.42.682-.28 1.301-.69 1.822-1.206.522-.517.935-1.131 1.216-1.807.281-.676.425-1.4.423-2.131v-4.815c0-.317-.117-.605-.35-.807l-4.127-4.094v-2.19c.003-.154-.025-.306-.082-.449-.057-.142-.142-.272-.25-.381-.109-.11-.238-.197-.38-.256-.143-.06-.296-.09-.451-.09-.155 0-.308.03-.45.09-.143.06-.272.146-.38.256-.109.11-.194.239-.25.381-.058.143-.086.295-.083.448v2.682c0 .317.117.605.349.807l4.127 4.065v4.324c0 1.787-1.482 3.258-3.285 3.258-1.802 0-3.284-1.47-3.284-3.258v-1.067c.046-.192.043-.393-.007-.584-.05-.192-.148-.368-.284-.513h-.029l-.03-.029-4.04-4.007V9.916c-.001-1 .197-1.99.582-2.913.385-.923.95-1.763 1.663-2.47.713-.707 1.56-1.267 2.49-1.65.933-.382 1.931-.578 2.94-.578 3.895 0 7.238 2.999 7.616 6.833v.115c.023.306.168.59.402.79.235.2.54.299.848.276.309-.023.595-.166.797-.399.202-.232.302-.534.279-.84l-.03-.173c-.233-2.443-1.38-4.71-3.213-6.358C22.865.9 20.475-.01 17.999-.001 12.478-.001 8 4.439 8 9.916v6.429c0 .317.116.605.349.807l4.04 4.007z"/>
    </g>
    <defs>
        <clipPath id="clip0">
            <path fill="#fff" d="M0 0H20V32H0z" transform="translate(8)"/>
        </clipPath>
    </defs>
</svg>
